<svg xmlns="http://www.w3.org/2000/svg" width="1920" height="794" viewBox="0 174 1920 794"><rect width="1920" height="794" fill="white" y="174"/><g font-family="Arial, sans-serif"><g data-box="120,200,440,220"><rect x="120" y="200" width="440" height="220" rx="18" fill="#EFF2F5" stroke="#343895" stroke-width="3"/><text x="340.0" y="299.2" font-size="40" fill="#34383C" text-anchor="middle" font-weight="500"><tspan x="340.0" dy="0">Facility</tspan><tspan x="340.0" dy="49.6">support</tspan></text></g><path d="M 560 310 L 752 310" fill="none" stroke="#8DC63F" stroke-width="8"/><polygon class="arrowhead" points="752,319 752,301 770,310" fill="#8DC63F"/><g data-box="770,200,440,220"><rect x="770" y="200" width="440" height="220" rx="18" fill="white" stroke="#343895" stroke-width="3"/><text x="990.0" y="299.2" font-size="40" fill="#34383C" text-anchor="middle" font-weight="500"><tspan x="990.0" dy="0">Rack</tspan><tspan x="990.0" dy="49.6">input</tspan></text></g><path d="M 1210 310 L 1402 310" fill="none" stroke="#8DC63F" stroke-width="8"/><polygon class="arrowhead" points="1402,319 1402,301 1420,310" fill="#8DC63F"/><g data-box="1420,200,380,220"><rect x="1420" y="200" width="380" height="220" rx="18" fill="#F0F6E5" stroke="#343895" stroke-width="3"/><text x="1610.0" y="299.74" font-size="38" fill="#34383C" text-anchor="middle" font-weight="500"><tspan x="1610.0" dy="0">Computing</tspan><tspan x="1610.0" dy="47.12">load</tspan></text></g><g data-box="760,616.44,460,220"><rect x="760" y="616.44" width="460" height="220" rx="18" fill="#F0F6E5" stroke="#343895" stroke-width="3"/><text x="990.0" y="715.64" font-size="40" fill="#34383C" text-anchor="middle" font-weight="500"><tspan x="990.0" dy="0">Local</tspan><tspan x="990.0" dy="49.6">buffer</tspan></text></g><path d="M 990 616.44 L 990 438" fill="none" stroke="#8DC63F" stroke-width="8"/><polygon class="arrowhead" points="999,438 981,438 990,420" fill="#8DC63F"/><text x="1430" y="516.6" font-size="32" fill="#343895" text-anchor="middle" font-weight="500"><tspan x="1430" dy="0">Rapid excursions</tspan><tspan x="1430" dy="39.68">and coordinated recharge</tspan></text><g data-box="120,616.44,440,220"><rect x="120" y="616.44" width="440" height="220" rx="18" fill="#EFF2F5" stroke="#343895" stroke-width="3"/><text x="340.0" y="715.64" font-size="40" fill="#34383C" text-anchor="middle" font-weight="500"><tspan x="340.0" dy="0">Cooling</tspan><tspan x="340.0" dy="49.6">dependency</tspan></text></g><path d="M 340 420 L 340 616.44" stroke="#747B83" stroke-width="6" fill="none"/><text x="960" y="933.04" font-size="32" fill="#747B83" text-anchor="middle" font-weight="500"><tspan x="960" dy="0">Buffering and backup support different loads, energy needs and operating states.</tspan></text></g></svg>